<svg xmlns="http://www.w3.org/2000/svg" viewBox="0 0 24 24" enable-background="new 0 0 24 24" width="48" height="48">
    <path style="text-indent:0;text-align:start;line-height:normal;text-transform:none;block-progression:tb;-inkscape-font-specification:Bitstream Vera Sans" d="M 12 2 L 12 4 C 12.3 4 12.640482 4.046827 12.6875 4.0625 L 13.3125 2.15625 C 12.759518 1.9719226 12.3 2 12 2 z M 14.96875 2.46875 L 14.40625 4.375 L 14.65625 4.4375 L 14.78125 4.5 L 15.625 4.875 L 15.75 4.9375 L 15.78125 4.9375 L 16.8125 3.21875 L 16.6875 3.15625 L 16.625 3.125 L 16.5625 3.09375 L 15.46875 2.625 L 15.40625 2.59375 L 15.34375 2.5625 L 14.96875 2.46875 z M 8 4 L 2 4.6875 L 3.6875 6.375 C 2.5952048 7.9763594 2 9.8996107 2 12 C 2 17.533333 6.4666667 22 12 22 C 17.533333 22 22 17.533333 22 12 C 22 11.7 22.02808 11.240482 21.84375 10.6875 L 19.9375 11.3125 C 19.953173 11.359518 20 11.7 20 12 C 20 16.466667 16.466667 20 12 20 C 7.5333333 20 4 16.466667 4 12 C 4 10.423219 4.3807287 9.019345 5.125 7.8125 L 7.3125 10 L 8 4 z M 18.34375 4.28125 L 17.09375 5.84375 L 17.34375 6.03125 L 17.40625 6.125 L 17.4375 6.125 L 18.09375 6.78125 L 18.09375 6.8125 L 18.125 6.875 L 18.15625 6.875 L 18.25 6.78125 L 19.75 5.6875 L 19.6875 5.59375 L 19.65625 5.53125 L 19.59375 5.5 L 18.78125 4.65625 L 18.75 4.625 L 18.6875 4.5625 L 18.34375 4.28125 z M 20.78125 7.21875 L 19.03125 8.1875 L 19.21875 8.53125 L 19.21875 8.5625 L 19.28125 8.65625 L 19.65625 9.65625 L 21.53125 8.9375 L 21.09375 7.8125 L 21.0625 7.75 L 21.03125 7.6875 L 20.78125 7.21875 z"/>
</svg>