<svg width="0" height="0" style="position:absolute">
    <symbol id="icon-text-align-center" viewBox="0 0 32 32">
        <path d="M 3 7 L 3 9 L 29 9 L 29 7 L 3 7 z M 7 11 L 7 13 L 25 13 L 25 11 L 7 11 z M 3 15 L 3 17 L 29 17 L 29 15 L 3 15 z M 7 19 L 7 21 L 25 21 L 25 19 L 7 19 z M 3 23 L 3 25 L 29 25 L 29 23 L 3 23 z"/>
    </symbol>

    <symbol id="icon-text-align-justify" viewBox="0 0 32 32">
        <path d="M 3 7 L 3 9 L 29 9 L 29 7 L 3 7 z M 3 11 L 3 13 L 29 13 L 29 11 L 3 11 z M 3 15 L 3 17 L 29 17 L 29 15 L 3 15 z M 3 19 L 3 21 L 29 21 L 29 19 L 3 19 z M 3 23 L 3 25 L 29 25 L 29 23 L 3 23 z"/>
    </symbol>

    <symbol id="icon-text-align-left" viewBox="0 0 32 32">
        <path d="M 3 7 L 3 9 L 29 9 L 29 7 L 3 7 z M 3 11 L 3 13 L 21 13 L 21 11 L 3 11 z M 3 15 L 3 17 L 29 17 L 29 15 L 3 15 z M 3 19 L 3 21 L 21 21 L 21 19 L 3 19 z M 3 23 L 3 25 L 29 25 L 29 23 L 3 23 z"/>
    </symbol>

    <symbol id="icon-text-align-right" viewBox="0 0 32 32">
        <path d="M 3 7 L 3 9 L 29 9 L 29 7 L 3 7 z M 11 11 L 11 13 L 29 13 L 29 11 L 11 11 z M 3 15 L 3 17 L 29 17 L 29 15 L 3 15 z M 11 19 L 11 21 L 29 21 L 29 19 L 11 19 z M 3 23 L 3 25 L 29 25 L 29 23 L 3 23 z"/>
    </symbol>

    <symbol id="icon-text-bold" viewBox="0 0 24 24">
        <path d="M6,21V3h5.9c2.1,0,3.8,0.4,5,1.2s1.8,2.1,1.8,3.7c0,0.8-0.2,1.6-0.6,2.2c-0.4,0.7-1.1,1.1-1.9,1.5c1.1,0.2,2,0.7,2.5,1.5 c0.6,0.8,0.9,1.7,0.9,2.7c0,1.7-0.6,3-1.7,3.9C16.7,20.6,15,21,13,21H6z M9.6,10.5H12c1,0,1.7-0.2,2.2-0.6C14.8,9.6,15,9,15,8.2 c0-0.8-0.3-1.4-0.8-1.8s-1.3-0.6-2.3-0.6H9.6V10.5z M9.6,13v5.2H13c1,0,1.7-0.2,2.2-0.6c0.5-0.4,0.8-1,0.8-1.8c0-0.9-0.2-1.5-0.7-2 c-0.5-0.5-1.2-0.7-2.2-0.7H9.6z"/>
    </symbol>

    <symbol id="icon-text-italic" viewBox="0 0 24 24">
        <path d="M 9 3 L 9 6 L 11.3125 6 L 9.5625 18 L 7 18 L 7 21 L 15 21 L 15 18 L 12.5625 18 L 14.3125 6 L 17 6 L 17 3 L 9 3 z"/>
    </symbol>

    <symbol id="icon-text-underline" viewBox="0 0 24 24">
        <path d="M 6.09375 3 L 6.09375 12.6875 C 6.09375 14.3875 6.5875 15.69375 7.6875 16.59375 C 8.7875 17.49375 10.2 18 12 18 C 13.7 18 15.1875 17.49375 16.1875 16.59375 C 17.2875 15.69375 17.90625 14.3875 17.90625 12.6875 L 17.90625 3 L 15 3 L 15 12.6875 C 15 13.6875 14.6875 14.5 14.1875 15 C 13.5875 15.5 12.9 15.8125 12 15.8125 C 11.1 15.8125 10.40625 15.5 9.90625 15 C 9.40625 14.4 9.09375 13.6875 9.09375 12.6875 L 9.09375 3 L 6.09375 3 z M 6 20 L 6 22 L 18 22 L 18 20 L 6 20 z"/>
    </symbol>

    <symbol id="icon-list" viewBox="0 0 36 26">
        <path d="M696.286,547.8h16.571a2,2,0,0,1,2,2V551a2,2,0,0,1-2,2H696.286a2,2,0,0,1-2-2v-1.2A2,2,0,0,1,696.286,547.8Zm-9.715,0A2.6,2.6,0,1,1,684,550.4,2.586,2.586,0,0,1,686.571,547.8Zm9.715-10.4h8.857a2,2,0,0,1,2,2v1.2a2,2,0,0,1-2,2h-8.857a2,2,0,0,1-2-2v-1.2A2,2,0,0,1,696.286,537.4Zm-9.715,0A2.6,2.6,0,1,1,684,540,2.586,2.586,0,0,1,686.571,537.4Zm9.715-10.4H718a2,2,0,0,1,2,2v1.2a2,2,0,0,1-2,2H696.286a2,2,0,0,1-2-2V529A2,2,0,0,1,696.286,527Zm-9.715,0A2.6,2.6,0,1,1,684,529.6,2.586,2.586,0,0,1,686.571,527Z" transform="translate(-684 -527)"/>
    </symbol>

    <symbol id="icon-brush" viewBox="0 0 32 32">
        <path d="M 24.8125 4.03125 C 23.975609 4.03125 23.133324 4.366676 22.5 5 L 9.8125 17.5 L 9.1875 18.09375 C 8.4384567 18.233668 7.7211068 18.602542 7.15625 19.21875 C 6.3232106 20.12752 6.1611002 21.241334 5.84375 22.4375 C 5.5263998 23.633666 5.1234834 24.963621 4.15625 26.4375 L 3.15625 28 L 5 28 C 8.9148148 28 11.494649 26.130351 12.8125 24.8125 L 12.84375 24.78125 C 13.446302 24.165307 13.782128 23.38683 13.90625 22.59375 L 14.40625 22.125 L 27.09375 9.625 L 27.09375 9.59375 C 28.360398 8.327102 28.360398 6.266648 27.09375 5 C 26.460426 4.366676 25.649391 4.03125 24.8125 4.03125 z M 24.8125 6 C 25.125609 6 25.420824 6.139574 25.6875 6.40625 C 26.220852 6.939602 26.220852 7.654148 25.6875 8.1875 L 16.65625 17.125 L 14.84375 15.3125 L 23.90625 6.40625 C 24.172926 6.139574 24.499391 6 24.8125 6 z M 13.40625 16.71875 L 15.21875 18.53125 L 13.71875 20 L 11.90625 18.1875 L 13.40625 16.71875 z M 9.96875 20.03125 C 10.474482 20.04557 11.020166 20.242444 11.4375 20.625 C 12.21468 21.337415 12.233055 22.579445 11.40625 23.40625 C 10.537351 24.275149 8.9990436 25.391273 6.75 25.8125 C 7.2314875 24.763227 7.5652808 23.782788 7.78125 22.96875 C 8.1138998 21.714916 8.3580394 20.85373 8.625 20.5625 C 8.9718576 20.18411 9.4630176 20.016934 9.96875 20.03125 z"/>
    </symbol>

    <symbol id="icon-cursor" viewBox="0 0 32 32">
        <path d="M 9 2.59375 L 9 5 L 9 26 L 9 28.15625 L 10.65625 26.78125 L 14.6875 23.40625 L 16.71875 27.4375 L 17.15625 28.34375 L 18.0625 27.875 L 21.15625 26.28125 L 22.03125 25.84375 L 21.59375 24.9375 L 19.75 21.3125 L 24.8125 20.6875 L 26.84375 20.4375 L 25.40625 19 L 10.71875 4.28125 L 9 2.59375 z M 11 7.4375 L 22.5625 18.96875 L 18.0625 19.5 L 16.65625 19.6875 L 17.3125 20.96875 L 19.375 24.96875 L 18.0625 25.65625 L 15.90625 21.34375 L 15.3125 20.21875 L 14.34375 21.03125 L 11 23.84375 L 11 7.4375 z"/>
    </symbol>

    <symbol id="icon-figures" viewBox="0 0 80 80">
        <path d="M54.6,40.4L44.5,21c-0.9-8.9-8.1-15.6-17-15.6c-9.5,0-17,7.5-17,17c0,8.4,5.9,15.3,13.8,16.7l-7.9,14.3h19.1v21.3h34.3V40.4
	H54.6z M16.5,22.4c0-6.2,4.8-11,11-11c3.9,0,7.4,2.1,9.3,5.2l-9.3,16.8c0,0,0,0,0,0C21.3,33.4,16.5,28.6,16.5,22.4z M26.6,47.4
	l12.8-23.1l8.4,16.1H35.5v7H26.6z M63.8,68.7H41.5V53.4v-7h16.3h6V68.7z"/>
    </symbol>

    <symbol id="icon-image" viewBox="0 0 32 32">
        <path d="M 3 6 L 3 7 L 3 25 L 3 26 L 4 26 L 28 26 L 29 26 L 29 25 L 29 7 L 29 6 L 28 6 L 4 6 L 3 6 z M 5 8 L 27 8 L 27 21.5625 L 19.21875 13.78125 L 18.5 13.09375 L 17.78125 13.78125 L 15.5 16.0625 L 11.71875 12.28125 L 11 11.59375 L 10.28125 12.28125 L 5 17.5625 L 5 8 z M 22.5 9 C 21.131133 9 20 10.131133 20 11.5 C 20 12.868867 21.131133 14 22.5 14 C 23.868867 14 25 12.868867 25 11.5 C 25 10.131133 23.868867 9 22.5 9 z M 22.5 11 C 22.787987 11 23 11.212013 23 11.5 C 23 11.787987 22.787987 12 22.5 12 C 22.212013 12 22 11.787987 22 11.5 C 22 11.212013 22.212013 11 22.5 11 z M 11 14.4375 L 14.0625 17.5 L 7.5625 24 L 5 24 L 5 20.4375 L 11 14.4375 z M 18.5 15.9375 L 26.5625 24 L 10.4375 24 L 18.5 15.9375 z"/>
    </symbol>

    <symbol id="icon-layers" viewBox="0 0 24 24">
        <path d="M 12 1.96875 C 11.65 1.96875 11.3 2.0375 11 2.1875 L 2.59375 6 C 1.79375 6.4 1.79375 7.50625 2.59375 7.90625 L 6 9.5 L 2.6875 11 C 1.8875 11.4 1.8875 12.50625 2.6875 12.90625 L 6.09375 14.46875 L 2.59375 16.09375 C 1.79375 16.49375 1.79375 17.6 2.59375 18 L 10.90625 21.8125 C 11.20625 21.9125 11.60625 22 11.90625 22 C 12.20625 22 12.60625 21.9125 12.90625 21.8125 L 21.1875 18 C 22.1875 17.6 22.20625 16.39375 21.40625 16.09375 L 17.90625 14.46875 L 21.3125 12.90625 C 22.1125 12.50625 22.1125 11.4 21.3125 11 L 17.96875 9.46875 L 21.3125 7.90625 C 22.1125 7.50625 22.1125 6.4 21.3125 6 L 13 2.1875 C 12.7 2.0375 12.35 1.96875 12 1.96875 z M 8.40625 10.59375 L 11 11.8125 C 11.6 12.1125 12.4 12.1125 13 11.8125 L 15.59375 10.59375 L 18.59375 12 L 12.1875 15 L 12 15 L 11.8125 15 L 5.40625 12 L 8.40625 10.59375 z M 8.5 15.5625 L 11 16.6875 C 11.3 16.7875 11.7 16.90625 12 16.90625 C 12.3 16.90625 12.7 16.7875 13 16.6875 L 15.5 15.5625 L 18.59375 17 L 12.1875 20 L 12 20 L 11.8125 20 L 5.40625 17 L 8.5 15.5625 z"/>
    </symbol>

    <symbol id="icon-poster" viewBox="0 0 32 32">
        <path d="M 5 3 L 5 4 L 5 28 L 5 29 L 6 29 L 21 29 L 21.40625 29 L 21.71875 28.71875 L 26.71875 23.71875 L 27 23.40625 L 27 23 L 27 4 L 27 3 L 26 3 L 6 3 L 5 3 z M 7 5 L 25 5 L 25 22 L 21 22 L 20 22 L 20 23 L 20 27 L 7 27 L 7 5 z M 16 6 C 15.447715 6 15 6.4477153 15 7 C 15 7.5522847 15.447715 8 16 8 C 16.552285 8 17 7.5522847 17 7 C 17 6.4477153 16.552285 6 16 6 z M 8 9 L 8 10 L 8 25 L 8 26 L 9 26 L 19 26 L 19 24 L 10 24 L 10 11 L 22 11 L 22 21 L 24 21 L 24 10 L 24 9 L 23 9 L 9 9 L 8 9 z M 22 24 L 23.5625 24 L 22 25.5625 L 22 24 z"/>
    </symbol>

    <symbol id="icon-undo" viewBox="0 0 32 32">
        <path d="M 12.78125 5.28125 L 4.78125 13.28125 L 4.09375 14 L 4.78125 14.71875 L 12.78125 22.71875 L 14.21875 21.28125 L 7.9375 15 L 21 15 C 23.754545 15 26 17.245455 26 20 L 26 27 L 28 27 L 28 20 C 28 16.154545 24.845455 13 21 13 L 7.9375 13 L 14.21875 6.71875 L 12.78125 5.28125 z"/>
    </symbol>

    <symbol id="icon-redo" viewBox="0 0 32 32">
        <path d="M 19.21875 5.28125 L 17.78125 6.71875 L 24.0625 13 L 11 13 C 7.1545455 13 4 16.154545 4 20 L 4 27 L 6 27 L 6 20 C 6 17.245455 8.2454545 15 11 15 L 24.0625 15 L 17.78125 21.28125 L 19.21875 22.71875 L 27.21875 14.71875 L 27.90625 14 L 27.21875 13.28125 L 19.21875 5.28125 z"/>
    </symbol>

    <symbol id="icon-save" viewBox="0 0 32 32">
        <path d="M 5 5 L 5 6 L 5 26 L 5 27 L 6 27 L 26 27 L 27 27 L 27 26 L 27 10 L 27 9.59375 L 26.71875 9.28125 L 22.71875 5.28125 L 22.40625 5 L 22 5 L 6 5 L 5 5 z M 7 7 L 10 7 L 10 12 L 10 13 L 11 13 L 21 13 L 22 13 L 22 12 L 22 7.4375 L 25 10.4375 L 25 25 L 23 25 L 23 17 L 23 16 L 22 16 L 10 16 L 9 16 L 9 17 L 9 25 L 7 25 L 7 7 z M 12 7 L 16 7 L 16 9 L 18 9 L 18 7 L 20 7 L 20 11 L 12 11 L 12 7 z M 11 18 L 21 18 L 21 25 L 11 25 L 11 18 z"/>
    </symbol>

    <symbol id="icon-cart" viewBox="0 0 32 32">
        <path d="M 5 7 C 4.448 7 4 7.448 4 8 C 4 8.552 4.448 9 5 9 L 7.21875 9 L 9.84375 19.5 C 10.06675 20.39 10.86425 21 11.78125 21 L 13 21 L 22 21 L 23.25 21 C 24.152 21 24.91825 20.40125 25.15625 19.53125 L 27.75 10 L 11 10 L 11.5 12 L 25.15625 12 L 23.25 19 L 11.78125 19 L 9.15625 8.5 C 8.93425 7.61 8.13675 7 7.21875 7 L 5 7 z M 22 21 C 20.35499 21 19 22.35499 19 24 C 19 25.64501 20.35499 27 22 27 C 23.64501 27 25 25.64501 25 24 C 25 22.35499 23.64501 21 22 21 z M 13 21 C 11.35499 21 10 22.35499 10 24 C 10 25.64501 11.35499 27 13 27 C 14.64501 27 16 25.64501 16 24 C 16 22.35499 14.64501 21 13 21 z M 13 23 C 13.564128 23 14 23.435872 14 24 C 14 24.564128 13.564128 25 13 25 C 12.435872 25 12 24.564128 12 24 C 12 23.435872 12.435872 23 13 23 z M 22 23 C 22.564128 23 23 23.435872 23 24 C 23 24.564128 22.564128 25 22 25 C 21.435872 25 21 24.564128 21 24 C 21 23.435872 21.435872 23 22 23 z"/>
    </symbol>

    <symbol id="icon-sticker" viewBox="0 0 270 270">
        <path d="M262.1,113.6c0.1-0.1,0.2-0.3,0.3-0.4c0-0.1,0.1-0.1,0.1-0.2c0.1-0.1,0.2-0.3,0.3-0.4c0-0.1,0.1-0.1,0.1-0.2
    c0.1-0.2,0.2-0.3,0.3-0.5c0-0.1,0.1-0.1,0.1-0.2c0.1-0.2,0.2-0.3,0.3-0.5c0-0.1,0.1-0.1,0.1-0.2c0.1-0.2,0.2-0.3,0.2-0.5
    c0-0.1,0-0.1,0.1-0.2c0.1-0.2,0.1-0.4,0.2-0.6c0-0.1,0-0.1,0.1-0.2c0.1-0.2,0.1-0.4,0.2-0.6c0-0.1,0-0.1,0-0.2
    c0.1-0.2,0.1-0.4,0.1-0.6V108c0-0.2,0.1-0.4,0.1-0.6v-0.1c0-0.2,0-0.4,0.1-0.6c0-0.1,0-0.1,0-0.2c0-0.2,0-0.4,0-0.6
    c0-0.1,0-0.2,0-0.2c0-0.2,0-0.4,0-0.5s0-0.2,0-0.3c0-0.2,0-0.4,0-0.5s0-0.2-0.1-0.3c0-0.1,0-0.3-0.1-0.4c0-0.1-0.1-0.3-0.1-0.4
    c0-0.1-0.1-0.2-0.1-0.4l0,0l0,0l0,0c-6-22.3-17.8-42.7-34.2-59.1c-24.9-24.9-58.1-38.7-93.3-38.7c-35.3,0-68.4,13.7-93.3,38.7
    C-7.9,95.3-7.9,179,43.6,230.5c16.4,16.4,36.8,28.2,59.1,34.2l0,0l0,0l0,0c0.1,0,0.3,0.1,0.4,0.1s0.3,0.1,0.4,0.1s0.3,0,0.4,0.1
    c0.1,0,0.2,0,0.4,0.1c0.2,0,0.3,0,0.5,0c0.1,0,0.2,0,0.3,0c0.3,0,0.5,0,0.8,0c3.1,0,6.2-1.2,8.5-3.5l147-147
    c0.2-0.2,0.4-0.4,0.5-0.6C261.9,113.8,262,113.7,262.1,113.6L262.1,113.6z M60.6,60.6C81,40.2,108.1,29,137,29
    c28.8,0,56,11.2,76.4,31.6c8.7,8.7,15.8,18.8,21.1,29.8c-4.2-0.4-8.4-0.6-12.6-0.6c-35.3,0-68.4,13.7-93.3,38.7
    c-16.7,16.7-28.6,37.5-34.5,60.2c-3.9,14.9-5,30.5-3.6,45.7c-11-5.3-21.1-12.4-29.8-21.1C18.5,171.3,18.5,102.7,60.6,60.6
    L60.6,60.6z M114,227.8c-1.6-30.3,9.6-60.5,31.4-82.4c20.4-20.4,47.5-31.6,76.4-31.6c2,0,4,0.1,6,0.2L114,227.8z"/>
    </symbol>

    <symbol id="icon-trash" viewBox="0 0 32 32">
        <path d="M 15 4 C 14.477778 4 13.939531 4.1854695 13.5625 4.5625 C 13.185469 4.9395305 13 5.4777778 13 6 L 13 7 L 7 7 L 7 9 L 8 9 L 8 25 C 8 26.645455 9.3545455 28 11 28 L 23 28 C 24.645455 28 26 26.645455 26 25 L 26 9 L 27 9 L 27 7 L 21 7 L 21 6 C 21 5.4777778 20.814531 4.9395305 20.4375 4.5625 C 20.060469 4.1854695 19.522222 4 19 4 L 15 4 z M 15 6 L 19 6 L 19 7 L 15 7 L 15 6 z M 10 9 L 24 9 L 24 25 C 24 25.554545 23.554545 26 23 26 L 11 26 C 10.445455 26 10 25.554545 10 25 L 10 9 z M 12 12 L 12 23 L 14 23 L 14 12 L 12 12 z M 16 12 L 16 23 L 18 23 L 18 12 L 16 12 z M 20 12 L 20 23 L 22 23 L 22 12 L 20 12 z"/>
    </symbol>

    <symbol id="icon-text" viewBox="0 0 32 32">
        <path d="M 7 6 L 7 8 L 15 8 L 15 26 L 17 26 L 17 8 L 25 8 L 25 6 L 7 6 z"/>
    </symbol>

    <symbol id="icon-zoom-in" viewBox="0 0 32 32">
        <path d="M 19 3 C 13.488997 3 9 7.4889972 9 13 C 9 15.39499 9.8389508 17.588106 11.25 19.3125 L 3.28125 27.28125 L 4.71875 28.71875 L 12.6875 20.75 C 14.411894 22.161049 16.60501 23 19 23 C 24.511003 23 29 18.511003 29 13 C 29 7.4889972 24.511003 3 19 3 z M 19 5 C 23.430123 5 27 8.5698774 27 13 C 27 17.430123 23.430123 21 19 21 C 14.569877 21 11 17.430123 11 13 C 11 8.5698774 14.569877 5 19 5 z M 18 9 L 18 12 L 15 12 L 15 14 L 18 14 L 18 17 L 20 17 L 20 14 L 23 14 L 23 12 L 20 12 L 20 9 L 18 9 z"/>
    </symbol>

    <symbol id="icon-zoom-out" viewBox="0 0 32 32">
        <path d="M 19 3 C 13.488997 3 9 7.4889972 9 13 C 9 15.39499 9.8389508 17.588106 11.25 19.3125 L 3.28125 27.28125 L 4.71875 28.71875 L 12.6875 20.75 C 14.411894 22.161049 16.60501 23 19 23 C 24.511003 23 29 18.511003 29 13 C 29 7.4889972 24.511003 3 19 3 z M 19 5 C 23.430123 5 27 8.5698774 27 13 C 27 17.430123 23.430123 21 19 21 C 14.569877 21 11 17.430123 11 13 C 11 8.5698774 14.569877 5 19 5 z M 15 12 L 15 14 L 23 14 L 23 12 L 15 12 z"/>
    </symbol>

    <symbol id="icon-opacity" viewBox="0 0 32 32">
        <path d="M 6 6 L 6 10 L 10 10 L 10 6 L 6 6 z M 10 10 L 10 14 L 14 14 L 14 10 L 10 10 z M 14 10 L 18 10 L 18 6 L 14 6 L 14 10 z M 18 10 L 18 14 L 22 14 L 22 10 L 18 10 z M 22 10 L 26 10 L 26 6 L 22 6 L 22 10 z M 22 14 L 22 18 L 26 18 L 26 14 L 22 14 z M 22 18 L 18 18 L 18 22 L 22 22 L 22 18 z M 22 22 L 22 26 L 26 26 L 26 22 L 22 22 z M 18 22 L 14 22 L 14 26 L 18 26 L 18 22 z M 14 22 L 14 18 L 10 18 L 10 22 L 14 22 z M 10 22 L 6 22 L 6 26 L 10 26 L 10 22 z M 10 18 L 10 14 L 6 14 L 6 18 L 10 18 z M 14 18 L 18 18 L 18 14 L 14 14 L 14 18 z"/>
    </symbol>


    <symbol id="icon-delete" viewBox="0 0 32 32">
        <path d="M 7.21875 5.78125 L 5.78125 7.21875 L 14.5625 16 L 5.78125 24.78125 L 7.21875 26.21875 L 16 17.4375 L 24.78125 26.21875 L 26.21875 24.78125 L 17.4375 16 L 26.21875 7.21875 L 24.78125 5.78125 L 16 14.5625 L 7.21875 5.78125 z"/>
    </symbol>


    <symbol id="icon-cancel" viewBox="0 0 32 32">
        <path d="M 16 3 C 8.8321429 3 3 8.8321429 3 16 C 3 23.167857 8.8321429 29 16 29 C 23.167857 29 29 23.167857 29 16 C 29 8.8321429 23.167857 3 16 3 z M 16 5 C 22.086977 5 27 9.9130231 27 16 C 27 22.086977 22.086977 27 16 27 C 9.9130231 27 5 22.086977 5 16 C 5 9.9130231 9.9130231 5 16 5 z M 12.21875 10.78125 L 10.78125 12.21875 L 14.5625 16 L 10.78125 19.78125 L 12.21875 21.21875 L 16 17.4375 L 19.78125 21.21875 L 21.21875 19.78125 L 17.4375 16 L 21.21875 12.21875 L 19.78125 10.78125 L 16 14.5625 L 12.21875 10.78125 z"/>
    </symbol>


    <symbol id="icon-pipette" viewBox="0 0 32 32">
        <path d="M 24.65625 3.03125 C 23.547884 3.03125 22.434125 3.4408751 21.59375 4.28125 L 18.8125 7.09375 L 17.8125 6.09375 L 16.40625 7.5 L 17.40625 8.5 L 7.90625 18 C 6.8664752 19.039775 6.2725381 19.791788 5.90625 20.46875 C 5.5399619 21.145712 5.4118089 21.754084 5.34375 22.15625 C 5.2756911 22.558416 5.2436387 22.776772 5 23.21875 C 4.7563613 23.660728 4.2674454 24.295055 3.28125 25.28125 L 2.59375 26 L 3.28125 26.71875 L 5.28125 28.71875 L 6 29.40625 L 6.71875 28.71875 C 7.6789752 27.758525 8.2925868 27.293087 8.71875 27.0625 C 9.1449132 26.831913 9.3709163 26.788191 9.78125 26.71875 C 10.191584 26.64931 10.782603 26.534486 11.46875 26.15625 C 12.154897 25.778014 12.936195 25.157555 14 24.09375 L 23.5 14.59375 L 24.5 15.59375 L 25.90625 14.1875 L 24.90625 13.1875 L 27.71875 10.40625 C 29.3995 8.7255002 29.3995 5.9619998 27.71875 4.28125 C 26.878375 3.4408751 25.764616 3.03125 24.65625 3.03125 z M 24.65625 5.03125 C 25.247884 5.03125 25.821625 5.2591249 26.28125 5.71875 C 27.2005 6.6380002 27.2005 8.0807498 26.28125 9 L 23.5 11.78125 L 20.21875 8.5 L 23 5.71875 C 23.459625 5.2591249 24.064616 5.03125 24.65625 5.03125 z M 18.8125 9.90625 L 22.09375 13.1875 L 12.59375 22.6875 C 11.607555 23.673695 10.941978 24.162611 10.5 24.40625 C 10.058022 24.649889 9.8396663 24.681941 9.4375 24.75 C 9.0353337 24.81806 8.4582118 24.914962 7.78125 25.28125 C 7.3209986 25.530281 6.6943854 26.127577 6.09375 26.65625 L 5.34375 25.90625 C 5.8914278 25.287399 6.4912031 24.656976 6.75 24.1875 C 7.1282363 23.501353 7.2430589 22.879084 7.3125 22.46875 C 7.3819411 22.058416 7.4256631 21.863663 7.65625 21.4375 C 7.8868369 21.011337 8.3522748 20.366475 9.3125 19.40625 L 18.8125 9.90625 z"/>
    </symbol>

    <symbol id="icon-hand" viewBox="0 0 32 32">
        <path d="M 16 2 C 14.618911 2 13.466988 2.9700225 13.125 4.25 C 12.773916 4.1044091 12.400961 4 12 4 C 10.35503 4 9 5.3550302 9 7 L 9 17 L 9 17.75 L 8.125 16.875 C 6.9619269 15.711927 5.0380731 15.711927 3.875 16.875 C 2.7119269 18.038073 2.7119269 19.961927 3.875 21.125 L 10.65625 27.90625 C 11.831677 29.077174 13.455692 30 15.375 30 L 20 30 C 23.854334 30 27 26.854334 27 23 L 27 11 C 27 9.3550302 25.64497 8 24 8 C 23.647017 8 23.315758 8.0732364 23 8.1875 L 23 7 C 23 5.3550302 21.64497 4 20 4 C 19.599039 4 19.226084 4.1044091 18.875 4.25 C 18.533012 2.9700225 17.381089 2 16 2 z M 16 4 C 16.56503 4 17 4.4349698 17 5 L 17 15 L 19 15 L 19 7 C 19 6.4349698 19.43497 6 20 6 C 20.56503 6 21 6.4349698 21 7 L 21 11 L 21 15 L 23 15 L 23 11 C 23 10.43497 23.43497 10 24 10 C 24.56503 10 25 10.43497 25 11 L 25 23 C 25 25.773666 22.773666 28 20 28 L 15.375 28 C 14.102308 28 13.006323 27.377826 12.09375 26.46875 L 5.28125 19.71875 C 4.8823231 19.319823 4.8823231 18.680177 5.28125 18.28125 C 5.6801769 17.882323 6.3198231 17.882323 6.71875 18.28125 L 9.28125 20.875 L 11 22.59375 L 11 20.1875 L 11 17 L 11 7 C 11 6.4349698 11.43497 6 12 6 C 12.56503 6 13 6.4349698 13 7 L 13 15 L 15 15 L 15 7 L 15 5 C 15 4.4349698 15.43497 4 16 4 z"/>
    </symbol>

    <symbol id="icon-hamburger" viewBox="0 0 24 24">
        <path d="M 2 5 L 2 7 L 22 7 L 22 5 L 2 5 z M 2 11 L 2 13 L 22 13 L 22 11 L 2 11 z M 2 17 L 2 19 L 22 19 L 22 17 L 2 17 z"/>
    </symbol>

    <symbol id="icon-close" viewBox="0 0 24 24">
        <path d="M 5.625 4.21875 L 4.21875 5.625 L 10.59375 12 L 4.21875 18.375 L 5.625 19.78125 L 12 13.40625 L 18.375 19.78125 L 19.78125 18.375 L 13.40625 12 L 19.78125 5.625 L 18.375 4.21875 L 12 10.59375 L 5.625 4.21875 z"/>
    </symbol>

    <symbol id="icon-back" viewBox="0 0 50 50">
        <path d="M 19.9375 12.96875 A 2.0002 2.0002 0 0 0 18.5625 13.59375 L 8.6875 23.59375 L 7.3125 25 L 8.6875 26.40625 L 18.5625 36.40625 A 2.0109563 2.0109563 0 1 0 21.4375 33.59375 L 14.90625 27 L 40 27 A 2.0002 2.0002 0 1 0 40 23 L 14.90625 23 L 21.4375 16.40625 A 2.0002 2.0002 0 0 0 19.9375 12.96875 z" />
    </symbol>

    <symbol id="icon-back-m" viewBox="0 0 24 24">
        <path d="M 14.78125 2.28125 L 5.78125 11.28125 L 5.09375 12 L 5.78125 12.71875 L 14.78125 21.71875 L 16.21875 20.28125 L 7.9375 12 L 16.21875 3.71875 L 14.78125 2.28125 z" />
    </symbol>

    <symbol id="icon-align-bottom" viewBox="0 0 50 50">
        <path d="M47,47v-2H3v2H47z M7.9,43C7.9,43,8,43,7.9,43H22c0.6,0,1-0.4,1-1V3c0-0.6-0.4-1-1-1H8C7.4,2,7,2.4,7,3v39
	C7,42.5,7.3,42.9,7.9,43C7.8,43,7.9,43,7.9,43z M42,43c0.6,0,1-0.4,1-1V13c0-0.6-0.4-1-1-1H28c-0.6,0-1,0.4-1,1v29c0,0.6,0.4,1,1,1
	H42z M9,4h12v37H9V4z" />
    </symbol>

    <symbol id="icon-align-hor-center" viewBox="0 0 50 50">
        <path d="M26,47.8v-4h13.5c0.6,0,1-0.4,1-1v-14c0-0.6-0.4-1-1-1H26v-4h18.5c0.6,0,1-0.4,1-1v-14c0-0.6-0.4-1-1-1H26v-4h-2v4H5.5
	c-0.5,0-0.9,0.3-1,0.8c0,0,0,0.1,0,0.1c0,0,0,0.1,0,0.1v14c0,0.6,0.4,1,1,1H24v4H10.5c-0.6,0-1,0.4-1,1v14c0,0.6,0.4,1,1,1H24v4H26z
	 M43.5,9.8v12H26v-12H43.5z M6.5,21.8v-12H24v12H6.5z" />
    </symbol>

    <symbol id="icon-align-left" viewBox="0 0 50 50">
        <path d="M2.5,46.5h2v-44h-2V46.5z M6.5,7.4C6.5,7.4,6.5,7.5,6.5,7.4v14.1c0,0.6,0.4,1,1,1h39c0.6,0,1-0.4,1-1v-14c0-0.6-0.4-1-1-1
	h-39C7,6.5,6.6,6.8,6.5,7.4C6.5,7.3,6.5,7.4,6.5,7.4z M6.5,41.5c0,0.6,0.4,1,1,1h29c0.6,0,1-0.4,1-1v-14c0-0.6-0.4-1-1-1h-29
	c-0.6,0-1,0.4-1,1V41.5z M45.5,8.5v12h-37v-12H45.5z" />
    </symbol>

    <symbol id="icon-align-right" viewBox="0 0 50 50">
        <path d="M47.5,2.5h-2v44h2V2.5z M43.5,7.3c-0.1-0.5-0.5-0.8-1-0.8h-39c-0.6,0-1,0.4-1,1v14c0,0.6,0.4,1,1,1h39c0.6,0,1-0.4,1-1v-14
	C43.5,7.5,43.5,7.4,43.5,7.3C43.5,7.4,43.5,7.3,43.5,7.3z M43.5,27.5c0-0.6-0.4-1-1-1h-29c-0.6,0-1,0.4-1,1v14c0,0.6,0.4,1,1,1h29
	c0.6,0,1-0.4,1-1V27.5z M41.5,8.5v12h-37v-12H41.5z" />
    </symbol>

    <symbol id="icon-align-top" viewBox="0 0 50 50">
        <path d="M 3 2 L 3 4 L 47 4 L 47 2 L 3 2 z M 7.8125 6 A 1.0001 1.0001 0 0 0 7 7 L 7 46 A 1.0001 1.0001 0 0 0 8 47 L 22 47 A 1.0001 1.0001 0 0 0 23 46 L 23 7 A 1.0001 1.0001 0 0 0 22 6 L 8 6 A 1.0001 1.0001 0 0 0 7.90625 6 A 1.0001 1.0001 0 0 0 7.8125 6 z M 28 6 C 27.447 6 27 6.448 27 7 L 27 36 C 27 36.553 27.447 37 28 37 L 42 37 C 42.553 37 43 36.553 43 36 L 43 7 C 43 6.448 42.553 6 42 6 L 28 6 z M 9 8 L 21 8 L 21 45 L 9 45 L 9 8 z" />
    </symbol>

    <symbol id="icon-align-ver-center" viewBox="0 0 50 50">
        <path d="M47,24.8h-4V11.3c0-0.6-0.4-1-1-1H28c-0.6,0-1,0.4-1,1v13.5h-4V6.2c0-0.6-0.4-1-1-1H8c-0.6,0-1,0.4-1,1v18.5H3v2h4v18.5
	c0,0.5,0.3,0.9,0.8,1c0,0,0.1,0,0.1,0c0,0,0.1,0,0.1,0h14c0.6,0,1-0.4,1-1V26.8h4v13.5c0,0.6,0.4,1,1,1h14c0.6,0,1-0.4,1-1V26.8h4
	V24.8z M9,7.3h12v17.5H9V7.3z M21,44.3H9V26.8h12V44.3z" />
    </symbol>

    <symbol id="icon-pen" viewBox="0 0 32 32">
        <path d="M 23.90625 3.96875 C 22.859286 3.96875 21.813178 4.3743215 21 5.1875 L 5.40625 20.78125 L 5.1875 21 L 5.125 21.3125 L 4.03125 26.8125 L 3.71875 28.28125 L 5.1875 27.96875 L 10.6875 26.875 L 11 26.8125 L 11.21875 26.59375 L 26.8125 11 C 28.438857 9.373643 28.438857 6.813857 26.8125 5.1875 C 25.999322 4.3743215 24.953214 3.96875 23.90625 3.96875 z M 23.90625 5.875 C 24.409286 5.875 24.919428 6.1069285 25.40625 6.59375 C 26.379893 7.567393 26.379893 8.620107 25.40625 9.59375 L 24.6875 10.28125 L 21.71875 7.3125 L 22.40625 6.59375 C 22.893072 6.1069285 23.403214 5.875 23.90625 5.875 z M 20.3125 8.71875 L 23.28125 11.6875 L 11.1875 23.78125 C 10.533142 22.500659 9.4993415 21.466858 8.21875 20.8125 L 20.3125 8.71875 z M 6.9375 22.4375 C 8.1365842 22.923393 9.0766067 23.863416 9.5625 25.0625 L 6.28125 25.71875 L 6.9375 22.4375 z" />
    </symbol>

    <symbol id="icon-marker" viewBox="0 0 32 32">
        <path d="M 23.625 3.0625 L 22.90625 3.6875 L 7.5625 17 L 7.0625 17.46875 L 7.3125 18.125 C 7.3125 18.125 8.4361935 21.126307 6.28125 23.28125 L 6.28125 23.3125 L 6.25 23.34375 L 6.09375 23.53125 L 5.96875 23.65625 L 2 27.53125 L 7.375 29 L 9.375 27 L 9.4375 26.9375 L 9.65625 26.75 L 9.6875 26.71875 L 9.71875 26.71875 C 11.873693 24.563807 14.875 25.6875 14.875 25.6875 L 15.53125 25.9375 L 16 25.4375 L 29.3125 10.09375 L 29.9375 9.375 L 29.28125 8.71875 L 24.28125 3.71875 L 23.625 3.0625 z M 23.5 5.8125 L 27.1875 9.5 L 18.4375 19.5625 L 13.4375 14.5625 L 23.5 5.8125 z M 11.9375 15.875 L 17.125 21.0625 L 15.1875 23.3125 L 9.6875 17.8125 L 11.9375 15.875 z M 9.5625 20.5 L 12.5 23.4375 C 11.258917 23.485493 9.752912 23.873165 8.34375 25.25 C 8.325065 25.26826 8.299849 25.26265 8.28125 25.28125 L 8.03125 25.5 L 7.5 24.96875 L 7.71875 24.71875 L 7.75 24.65625 C 9.1268354 23.247088 9.5145066 21.741083 9.5625 20.5 z" />
    </symbol>

    <symbol id="icon-spray" viewBox="0 0 32 32">
        <path d="M 12 2 L 12 3 L 12 7 L 12 8 L 13 8 L 14 8 L 14 9.0625 C 9.8975954 9.5017181 8.125 12.53125 8.125 12.53125 L 8 12.75 L 8 13 L 8 29 L 8 30 L 9 30 L 21 30 L 22 30 L 22 29 L 22 13 L 22 12.75 L 21.875 12.53125 C 21.875 12.53125 20.102405 9.5017181 16 9.0625 L 16 8 L 17 8 L 18 8 L 18 7 L 18 3 L 18 2 L 17 2 L 13 2 L 12 2 z M 24 2 C 23.447715 2 23 2.4477153 23 3 C 23 3.5522847 23.447715 4 24 4 C 24.552285 4 25 3.5522847 25 3 C 25 2.4477153 24.552285 2 24 2 z M 14 4 L 16 4 L 16 6 L 14 6 L 14 4 z M 21 4 C 20.447715 4 20 4.4477153 20 5 C 20 5.5522847 20.447715 6 21 6 C 21.552285 6 22 5.5522847 22 5 C 22 4.4477153 21.552285 4 21 4 z M 24 6 C 23.447715 6 23 6.4477153 23 7 C 23 7.5522847 23.447715 8 24 8 C 24.552285 8 25 7.5522847 25 7 C 25 6.4477153 24.552285 6 24 6 z M 15 11 C 16.739247 11 17.910365 11.480434 18.6875 12 L 11.3125 12 C 12.089635 11.480434 13.260753 11 15 11 z M 10 14 L 20 14 L 20 28 L 10 28 L 10 14 z M 15 18 C 13.35499 18 12 19.35499 12 21 C 12 22.64501 13.35499 24 15 24 C 16.64501 24 18 22.64501 18 21 C 18 19.35499 16.64501 18 15 18 z M 15 20 C 15.564128 20 16 20.435872 16 21 C 16 21.564128 15.564128 22 15 22 C 14.435872 22 14 21.564128 14 21 C 14 20.435872 14.435872 20 15 20 z" />
    </symbol>

    <symbol id="icon-brush" viewBox="0 0 32 32">
        <path d="M 26.71875 3 L 26 3.5625 L 9.46875 17.125 L 3.5625 20.09375 L 3 20.375 L 3 21 C 3 25.56542 6.5647933 29 11 29 L 11.625 29 L 11.90625 28.4375 L 14.90625 22.4375 L 28.40625 5.96875 L 29 5.28125 L 28.34375 4.625 L 27.34375 3.625 L 26.71875 3 z M 25.03125 6.96875 L 18.90625 14.46875 L 17.53125 13.09375 L 25.03125 6.96875 z M 15.96875 14.40625 L 17.59375 16.03125 L 13.9375 20.5 L 11.5 18.0625 L 15.96875 14.40625 z M 9.78125 19.21875 L 12.78125 22.21875 L 10.4375 26.90625 C 8.8585001 26.771913 7.5366794 26.111697 6.59375 25.0625 L 9.59375 22.8125 L 8.40625 21.1875 L 5.5625 23.34375 C 5.3475403 22.792539 5.1800281 22.209733 5.125 21.5625 L 9.78125 19.21875 z" />
    </symbol>

    <symbol id="icon-brush-2" viewBox="0 0 32 32">
        <path d="M 24.8125 4.03125 C 23.975609 4.03125 23.133324 4.366676 22.5 5 L 9.8125 17.5 L 9.1875 18.09375 C 8.4384567 18.233668 7.7211068 18.602542 7.15625 19.21875 C 6.3232106 20.12752 6.1611002 21.241334 5.84375 22.4375 C 5.5263998 23.633666 5.1234834 24.963621 4.15625 26.4375 L 3.15625 28 L 5 28 C 8.9148148 28 11.494649 26.130351 12.8125 24.8125 L 12.84375 24.78125 C 13.446302 24.165307 13.782128 23.38683 13.90625 22.59375 L 14.40625 22.125 L 27.09375 9.625 L 27.09375 9.59375 C 28.360398 8.327102 28.360398 6.266648 27.09375 5 C 26.460426 4.366676 25.649391 4.03125 24.8125 4.03125 z M 24.8125 6 C 25.125609 6 25.420824 6.139574 25.6875 6.40625 C 26.220852 6.939602 26.220852 7.654148 25.6875 8.1875 L 16.65625 17.125 L 14.84375 15.3125 L 23.90625 6.40625 C 24.172926 6.139574 24.499391 6 24.8125 6 z M 13.40625 16.71875 L 15.21875 18.53125 L 13.71875 20 L 11.90625 18.1875 L 13.40625 16.71875 z M 9.96875 20.03125 C 10.474482 20.04557 11.020166 20.242444 11.4375 20.625 C 12.21468 21.337415 12.233055 22.579445 11.40625 23.40625 C 10.537351 24.275149 8.9990436 25.391273 6.75 25.8125 C 7.2314875 24.763227 7.5652808 23.782788 7.78125 22.96875 C 8.1138998 21.714916 8.3580394 20.85373 8.625 20.5625 C 8.9718576 20.18411 9.4630176 20.016934 9.96875 20.03125 z" />
    </symbol>



</svg>
